<svg width="1200" height="720" viewBox="0 0 1200 720" xmlns="http://www.w3.org/2000/svg">
  <defs>
    <linearGradient id="bg5" x1="0" y1="0" x2="1" y2="1">
      <stop offset="0" stop-color="#ffffff"/>
      <stop offset="1" stop-color="#f8fafc"/>
    </linearGradient>
  </defs>
  <rect x="0" y="0" width="1200" height="720" rx="26" fill="#0b1220"/>
  <rect x="70" y="70" width="1060" height="580" rx="22" fill="url(#bg5)" stroke="#e5e7eb"/>
  <rect x="70" y="70" width="1060" height="64" rx="22" fill="#0b1220"/>
  <text x="110" y="110" fill="#e5e7eb" font-family="Inter, Arial, sans-serif" font-size="16" font-weight="800">Bajar precio</text>

  <text x="120" y="185" fill="#0f172a" font-family="Inter, Arial, sans-serif" font-size="22" font-weight="900">Reducir precio para reactivar interés</text>
  <text x="120" y="214" fill="#475569" font-family="Inter, Arial, sans-serif" font-size="14">Una baja de 5% a 12% suele destrabar consultas.</text>

  <rect x="120" y="260" width="960" height="340" rx="18" fill="#ffffff" stroke="#e2e8f0"/>
  <rect x="160" y="300" width="420" height="230" rx="16" fill="#f1f5f9" stroke="#e2e8f0"/>
  <text x="370" y="420" fill="#94a3b8" font-family="Inter, Arial, sans-serif" font-size="14" text-anchor="middle">preview del aviso</text>

  <rect x="620" y="300" width="420" height="66" rx="14" fill="#ffffff" stroke="#e2e8f0"/>
  <text x="650" y="340" fill="#64748b" font-family="Inter, Arial, sans-serif" font-size="16">Precio anterior: $ 9.000.000</text>
  <rect x="620" y="384" width="420" height="66" rx="14" fill="#ffffff" stroke="#e2e8f0"/>
  <text x="650" y="424" fill="#0f172a" font-family="Inter, Arial, sans-serif" font-size="16" font-weight="900">Nuevo precio: $ 8.490.000</text>
  <rect x="620" y="468" width="420" height="62" rx="16" fill="#10b981"/>
  <text x="830" y="507" fill="#ffffff" font-family="Inter, Arial, sans-serif" font-size="16" font-weight="900" text-anchor="middle">Guardar</text>
</svg>

