<svg width="1200" height="720" viewBox="0 0 1200 720" xmlns="http://www.w3.org/2000/svg">
  <defs>
    <linearGradient id="bg2" x1="0" y1="0" x2="1" y2="1">
      <stop offset="0" stop-color="#ffffff"/>
      <stop offset="1" stop-color="#f1f5f9"/>
    </linearGradient>
  </defs>
  <rect x="0" y="0" width="1200" height="720" rx="26" fill="#0b1220"/>
  <rect x="70" y="70" width="1060" height="580" rx="22" fill="url(#bg2)" stroke="#e5e7eb"/>
  <rect x="70" y="70" width="1060" height="64" rx="22" fill="#14212e"/>
  <text x="110" y="110" fill="#e5e7eb" font-family="Inter, Arial, sans-serif" font-size="16" font-weight="800">Dashboard</text>

  <rect x="100" y="160" width="240" height="460" rx="18" fill="#ffffff" stroke="#e2e8f0"/>
  <text x="130" y="205" fill="#0f172a" font-family="Inter, Arial, sans-serif" font-size="16" font-weight="900">Pestañas</text>
  <rect x="120" y="235" width="200" height="44" rx="12" fill="#eef2ff" stroke="#c7d2fe"/>
  <text x="150" y="262" fill="#3730a3" font-family="Inter, Arial, sans-serif" font-size="14" font-weight="800">Editar tienda</text>
  <rect x="120" y="292" width="200" height="44" rx="12" fill="#ffffff" stroke="#e2e8f0"/>
  <text x="150" y="319" fill="#334155" font-family="Inter, Arial, sans-serif" font-size="14" font-weight="700">Publicaciones</text>
  <rect x="120" y="349" width="200" height="44" rx="12" fill="#ffffff" stroke="#e2e8f0"/>
  <text x="150" y="376" fill="#334155" font-family="Inter, Arial, sans-serif" font-size="14" font-weight="700">Analítica</text>

  <rect x="370" y="160" width="740" height="460" rx="18" fill="#ffffff" stroke="#e2e8f0"/>
  <text x="410" y="205" fill="#0f172a" font-family="Inter, Arial, sans-serif" font-size="18" font-weight="900">Editar tienda</text>
  <text x="410" y="238" fill="#475569" font-family="Inter, Arial, sans-serif" font-size="14">Completá banner, nombre, redes y dirección.</text>
  <rect x="410" y="270" width="620" height="64" rx="14" fill="#f8fafc" stroke="#e2e8f0"/>
  <text x="440" y="308" fill="#64748b" font-family="Inter, Arial, sans-serif" font-size="16">Nombre de la tienda</text>
  <rect x="410" y="350" width="620" height="120" rx="14" fill="#f8fafc" stroke="#e2e8f0"/>
  <text x="440" y="392" fill="#64748b" font-family="Inter, Arial, sans-serif" font-size="16">Descripción</text>
  <rect x="410" y="500" width="240" height="54" rx="16" fill="#14212e"/>
  <text x="530" y="535" fill="#ffffff" font-family="Inter, Arial, sans-serif" font-size="15" font-weight="900" text-anchor="middle">Guardar cambios</text>
</svg>

