<svg width="1200" height="720" viewBox="0 0 1200 720" xmlns="http://www.w3.org/2000/svg">
  <defs>
    <linearGradient id="bg3" x1="0" y1="0" x2="1" y2="1">
      <stop offset="0" stop-color="#ffffff"/>
      <stop offset="1" stop-color="#f8fafc"/>
    </linearGradient>
    <linearGradient id="cta" x1="0" y1="0" x2="1" y2="1">
      <stop offset="0" stop-color="#2563eb"/>
      <stop offset="1" stop-color="#7c3aed"/>
    </linearGradient>
  </defs>
  <rect x="0" y="0" width="1200" height="720" rx="26" fill="#0b1220"/>
  <rect x="70" y="70" width="1060" height="580" rx="22" fill="url(#bg3)" stroke="#e5e7eb"/>
  <rect x="70" y="70" width="1060" height="64" rx="22" fill="#0b1220"/>
  <text x="110" y="110" fill="#e5e7eb" font-family="Inter, Arial, sans-serif" font-size="16" font-weight="800">Publicar</text>

  <text x="120" y="185" fill="#0f172a" font-family="Inter, Arial, sans-serif" font-size="22" font-weight="900">Cargar un producto</text>
  <text x="120" y="214" fill="#475569" font-family="Inter, Arial, sans-serif" font-size="14">Fotos, título, descripción y precio.</text>

  <rect x="120" y="250" width="480" height="280" rx="18" fill="#ffffff" stroke="#e2e8f0"/>
  <rect x="150" y="280" width="420" height="170" rx="14" fill="#f1f5f9" stroke="#e2e8f0"/>
  <text x="360" y="370" fill="#94a3b8" font-family="Inter, Arial, sans-serif" font-size="14" text-anchor="middle">Subí 8+ fotos reales</text>
  <rect x="150" y="470" width="420" height="44" rx="12" fill="#ffffff" stroke="#e2e8f0"/>
  <text x="175" y="498" fill="#64748b" font-family="Inter, Arial, sans-serif" font-size="14">Título (ej. Specialized Tarmac SL7)</text>

  <rect x="640" y="250" width="440" height="280" rx="18" fill="#ffffff" stroke="#e2e8f0"/>
  <rect x="670" y="280" width="380" height="44" rx="12" fill="#ffffff" stroke="#e2e8f0"/>
  <text x="695" y="308" fill="#64748b" font-family="Inter, Arial, sans-serif" font-size="14">Precio</text>
  <rect x="670" y="336" width="380" height="120" rx="12" fill="#ffffff" stroke="#e2e8f0"/>
  <text x="695" y="376" fill="#64748b" font-family="Inter, Arial, sans-serif" font-size="14">Descripción</text>
  <rect x="640" y="560" width="440" height="70" rx="20" fill="url(#cta)"/>
  <text x="860" y="603" fill="#ffffff" font-family="Inter, Arial, sans-serif" font-size="18" font-weight="900" text-anchor="middle">Publicar</text>
</svg>

